<svg width="390" height="80" viewBox="0 0 390 80" fill="none" xmlns="http://www.w3.org/2000/svg">
<path d="M131.501 19.5737H139.111L124.041 61.9833H116.283L105.018 29.5088L93.8279 61.9833H86.0694L71 19.5737H78.9823L90.1724 52.4931L101.288 19.5737H109.046L120.237 52.7155L131.501 19.5737Z" fill="white"/>
<path d="M164.077 18.5357C176.684 18.5357 185.86 28.0259 185.86 40.7785C185.86 53.5311 176.684 63.0213 164.077 63.0213C151.395 63.0213 142.219 53.5311 142.219 40.7785C142.219 28.0259 151.395 18.5357 164.077 18.5357ZM164.077 25.2827C155.572 25.2827 149.754 31.9555 149.754 40.7785C149.754 49.6015 155.572 56.2743 164.077 56.2743C172.507 56.2743 178.326 49.6015 178.326 40.7785C178.326 31.9555 172.507 25.2827 164.077 25.2827Z" fill="white"/>
<path d="M215.292 18.5357C227.9 18.5357 237.076 28.0259 237.076 40.7785C237.076 53.5311 227.9 63.0213 215.292 63.0213C202.61 63.0213 193.434 53.5311 193.434 40.7785C193.434 28.0259 202.61 18.5357 215.292 18.5357ZM215.292 25.2827C206.788 25.2827 200.969 31.9555 200.969 40.7785C200.969 49.6015 206.788 56.2743 215.292 56.2743C223.722 56.2743 229.541 49.6015 229.541 40.7785C229.541 31.9555 223.722 25.2827 215.292 25.2827Z" fill="white"/>
<path d="M246.887 19.5737H254.571V26.0982C256.436 22.9101 261.584 18.5357 269.939 18.5357C272.55 18.5357 274.266 18.7581 275.758 19.2771V26.5431C274.117 25.8017 272.028 25.3568 269.417 25.3568C260.689 25.3568 254.571 32.3262 254.571 40.0371V61.9833H246.887V19.5737Z" fill="white"/>
<path d="M287.191 0C290.175 0 292.339 2.15014 292.339 5.0417C292.339 7.93327 290.175 10.0834 287.191 10.0834C284.282 10.0834 282.118 7.93327 282.118 5.0417C282.118 2.15014 284.282 0 287.191 0ZM291.07 62.0575H283.387V19.5737H291.07V62.0575Z" fill="white"/>
<path d="M334.984 19.5737H342.966L316.334 80H308.575L317.005 61.0936L298.728 19.5737H307.158L320.885 52.9379L334.984 19.5737Z" fill="white"/>
<path d="M367.172 63.0213C355.087 63.0213 346.06 53.4569 346.06 40.7785C346.06 28.1001 355.087 18.5357 367.172 18.5357C374.931 18.5357 380.153 22.2428 382.316 25.8758V19.5737H390V61.9833H382.316V55.6812C380.153 59.3142 374.931 63.0213 367.172 63.0213ZM367.844 56.2743C376.497 56.2743 382.465 49.6015 382.465 40.7785C382.465 31.9555 376.497 25.2827 367.844 25.2827C359.264 25.2827 353.595 31.9555 353.595 40.7785C353.595 49.6015 359.264 56.2743 367.844 56.2743Z" fill="white"/>
<path d="M44 48C32.9543 48 24 39.0457 24 28C24 16.9543 32.9543 8 44 8C55.0457 8 64 16.9543 64 28C64 39.0457 55.0457 48 44 48Z" fill="white"/>
<path d="M20 48C8.95431 48 -2.41411e-07 39.0457 0 28C2.41411e-07 16.9543 8.95431 8 20 8C31.0457 8 40 16.9543 40 28C40 39.0457 31.0457 48 20 48Z" fill="white"/>
<path d="M44 72C32.9543 72 24 63.0457 24 52C24 40.9543 32.9543 32 44 32C55.0457 32 64 40.9543 64 52C64 63.0457 55.0457 72 44 72Z" fill="white"/>
<path d="M20 72C8.95431 72 -2.41411e-07 63.0457 0 52C2.41411e-07 40.9543 8.95431 32 20 32C31.0457 32 40 40.9543 40 52C40 63.0457 31.0457 72 20 72Z" fill="white"/>
</svg>
