<svg xmlns="http://www.w3.org/2000/svg" width="64" height="64" viewBox="0 0 64 64" fill="none">
  <path d="M44 40C32.9543 40 24 31.0457 24 20C24 8.95431 32.9543 -2.41411e-07 44 0C55.0457 2.41411e-07 64 8.95431 64 20C64 31.0457 55.0457 40 44 40Z" fill="white"/>
  <path d="M20 40C8.95431 40 -2.41411e-07 31.0457 0 20C2.41411e-07 8.95431 8.95431 -2.41411e-07 20 0C31.0457 2.41411e-07 40 8.95431 40 20C40 31.0457 31.0457 40 20 40Z" fill="white"/>
  <path d="M44 64C32.9543 64 24 55.0457 24 44C24 32.9543 32.9543 24 44 24C55.0457 24 64 32.9543 64 44C64 55.0457 55.0457 64 44 64Z" fill="white"/>
  <path d="M20 64C8.95431 64 -2.41411e-07 55.0457 0 44C2.41411e-07 32.9543 8.95431 24 20 24C31.0457 24 40 32.9543 40 44C40 55.0457 31.0457 64 20 64Z" fill="white"/>
</svg>