<svg width="319" height="80" viewBox="0 0 319 80" fill="none" xmlns="http://www.w3.org/2000/svg">
<path d="M60.5014 19.5737H68.1106L53.0413 61.9833H45.2828L34.018 29.5088L22.8279 61.9833H15.0694L0 19.5737H7.9823L19.1724 52.4931L30.288 19.5737H38.0465L49.2366 52.7155L60.5014 19.5737Z" fill="white"/>
<path d="M93.0769 18.5357C105.684 18.5357 114.86 28.0259 114.86 40.7785C114.86 53.5311 105.684 63.0213 93.0769 63.0213C80.3947 63.0213 71.2188 53.5311 71.2188 40.7785C71.2188 28.0259 80.3947 18.5357 93.0769 18.5357ZM93.0769 25.2827C84.5724 25.2827 78.7535 31.9555 78.7535 40.7785C78.7535 49.6015 84.5724 56.2743 93.0769 56.2743C101.507 56.2743 107.326 49.6015 107.326 40.7785C107.326 31.9555 101.507 25.2827 93.0769 25.2827Z" fill="white"/>
<path d="M144.292 18.5357C156.9 18.5357 166.076 28.0259 166.076 40.7785C166.076 53.5311 156.9 63.0213 144.292 63.0213C131.61 63.0213 122.434 53.5311 122.434 40.7785C122.434 28.0259 131.61 18.5357 144.292 18.5357ZM144.292 25.2827C135.788 25.2827 129.969 31.9555 129.969 40.7785C129.969 49.6015 135.788 56.2743 144.292 56.2743C152.722 56.2743 158.541 49.6015 158.541 40.7785C158.541 31.9555 152.722 25.2827 144.292 25.2827Z" fill="white"/>
<path d="M175.887 19.5737H183.571V26.0982C185.436 22.9101 190.584 18.5357 198.939 18.5357C201.55 18.5357 203.266 18.7581 204.758 19.2771V26.5431C203.117 25.8017 201.028 25.3568 198.417 25.3568C189.689 25.3568 183.571 32.3262 183.571 40.0371V61.9833H175.887V19.5737Z" fill="white"/>
<path d="M216.191 0C219.175 0 221.339 2.15014 221.339 5.0417C221.339 7.93327 219.175 10.0834 216.191 10.0834C213.282 10.0834 211.118 7.93327 211.118 5.0417C211.118 2.15014 213.282 0 216.191 0ZM220.07 62.0575H212.387V19.5737H220.07V62.0575Z" fill="white"/>
<path d="M263.984 19.5737H271.966L245.334 80H237.575L246.005 61.0936L227.728 19.5737H236.158L249.885 52.9379L263.984 19.5737Z" fill="white"/>
<path d="M296.172 63.0213C284.087 63.0213 275.06 53.4569 275.06 40.7785C275.06 28.1001 284.087 18.5357 296.172 18.5357C303.931 18.5357 309.153 22.2428 311.316 25.8758V19.5737H319V61.9833H311.316V55.6812C309.153 59.3142 303.931 63.0213 296.172 63.0213ZM296.844 56.2743C305.497 56.2743 311.465 49.6015 311.465 40.7785C311.465 31.9555 305.497 25.2827 296.844 25.2827C288.264 25.2827 282.595 31.9555 282.595 40.7785C282.595 49.6015 288.264 56.2743 296.844 56.2743Z" fill="white"/>
</svg>
